<?xml version="1.0" encoding="UTF-8"?>
<svg version="1.1" xmlns="http://www.w3.org/2000/svg" width="100" height="100">
<path d="M0 0 C1.3602832 -0.05510742 1.3602832 -0.05510742 2.74804688 -0.11132812 C5.32645425 -0.12840367 7.55813859 -0.05635149 10.0625 0.5625 C13.17228025 4.00160645 14.52227908 6.97062214 15.0625 11.5625 C18.43712715 11.01526317 20.14485 10.5076 23.0625 8.5625 C25.75 8 25.75 8 29.0625 8.5625 C32.04514934 10.59187122 34.53747944 12.99600066 37.0625 15.5625 C37.59746094 16.08714844 38.13242188 16.61179687 38.68359375 17.15234375 C41.00206956 19.62844964 42.02364466 21.31965411 42.5625 24.6875 C42.01179552 27.85405078 41.0333023 29.09899712 39.0625 31.5625 C39.0625 32.8825 39.0625 34.2025 39.0625 35.5625 C39.70058594 35.76746094 40.33867188 35.97242188 40.99609375 36.18359375 C41.82238281 36.45300781 42.64867188 36.72242188 43.5 37 C44.32371094 37.26683594 45.14742188 37.53367188 45.99609375 37.80859375 C48.0625 38.5625 48.0625 38.5625 49.0625 39.5625 C49.36945516 43.17906686 49.34085951 46.80950353 49.375 50.4375 C49.41850586 51.96697266 49.41850586 51.96697266 49.46289062 53.52734375 C49.47126953 54.50574219 49.47964844 55.48414063 49.48828125 56.4921875 C49.50286377 57.39179199 49.51744629 58.29139648 49.5324707 59.21826172 C49.0625 61.5625 49.0625 61.5625 47.23901367 63.33642578 C44.54335486 64.85494497 42.1167059 65.21543115 39.0625 65.5625 C39.49029335 68.12926013 39.83903647 70.19006078 41.1875 72.4375 C42.57272005 75.80160584 41.9617499 78.08540037 41.0625 81.5625 C39.58329476 83.92612515 38.06207677 85.56292323 36.0625 87.5625 C35.4025 87.5625 34.7425 87.5625 34.0625 87.5625 C34.0625 88.2225 34.0625 88.8825 34.0625 89.5625 C31.61285545 92.11013034 30.17654277 92.55005897 26.625 92.9375 C22.87401403 92.54265937 21.14615003 91.61826668 18.0625 89.5625 C17.0725 89.5625 16.0825 89.5625 15.0625 89.5625 C14.85753906 90.20058594 14.65257813 90.83867188 14.44140625 91.49609375 C14.17199219 92.32238281 13.90257812 93.14867188 13.625 94 C13.35816406 94.82371094 13.09132812 95.64742188 12.81640625 96.49609375 C12.0625 98.5625 12.0625 98.5625 11.0625 99.5625 C7.44593314 99.86945516 3.81549647 99.84085951 0.1875 99.875 C-0.83214844 99.90400391 -1.85179687 99.93300781 -2.90234375 99.96289062 C-3.88074219 99.97126953 -4.85914063 99.97964844 -5.8671875 99.98828125 C-6.76679199 100.00286377 -7.66639648 100.01744629 -8.59326172 100.0324707 C-10.9375 99.5625 -10.9375 99.5625 -12.71142578 97.73901367 C-14.22994497 95.04335486 -14.59043115 92.6167059 -14.9375 89.5625 C-18.31212715 90.10973683 -20.01985 90.6174 -22.9375 92.5625 C-26 93.25 -26 93.25 -29.9375 92.5625 C-34.59928322 89.15688591 -38.72987069 85.37394397 -41.9375 80.5625 C-42.38786243 75.60851322 -42.07290111 73.35110968 -38.9375 69.5625 C-38.9375 68.2425 -38.9375 66.9225 -38.9375 65.5625 C-40.195625 65.294375 -41.45375 65.02625 -42.75 64.75 C-46.0769124 64.04098588 -47.79170329 63.23396629 -49.9375 60.5625 C-50.32568359 58.43359375 -50.32568359 58.43359375 -50.3359375 56 C-50.33980469 55.12085938 -50.34367187 54.24171875 -50.34765625 53.3359375 C-50.33605469 52.42070313 -50.32445312 51.50546875 -50.3125 50.5625 C-50.32990234 49.18964844 -50.32990234 49.18964844 -50.34765625 47.7890625 C-50.34378906 46.90992188 -50.33992188 46.03078125 -50.3359375 45.125 C-50.33086182 43.92037109 -50.33086182 43.92037109 -50.32568359 42.69140625 C-49.84664889 40.06424739 -49.02116043 39.1834069 -46.9375 37.5625 C-44.26431142 36.89292504 -41.69924963 36.78887292 -38.9375 36.5625 C-39.35966873 34.0294876 -39.72615426 31.93546307 -41 29.6875 C-42.48458982 26.32242975 -42.48556463 24.21626422 -41.9375 20.5625 C-39.92960715 17.54502057 -37.53747738 15.0752664 -34.9375 12.5625 C-33.7 11.325 -33.7 11.325 -32.4375 10.0625 C-29.04931312 8.02958787 -26.82226306 8.06807561 -22.9375 8.5625 C-20.75 10.0625 -20.75 10.0625 -18.9375 11.5625 C-17.6175 11.5625 -16.2975 11.5625 -14.9375 11.5625 C-14.669375 10.304375 -14.40125 9.04625 -14.125 7.75 C-12.38746158 -0.4030649 -7.25107981 0.01539507 0 0 Z M-12.75 42.375 C-15.07218871 46.65271604 -15.12734186 50.46141724 -14.3125 55.1875 C-12.55242422 59.50768599 -10.15389518 62.45430241 -5.9375 64.5625 C-0.65444786 65.08907873 3.73112857 65.20441122 8.5625 62.875 C12.75157439 59.00010619 14.23509515 56.32472687 14.5 50.625 C14.34485325 45.88597205 13.30367032 43.15406711 10.0625 39.5625 C6.22467434 36.17618324 2.42878506 36.05300672 -2.5 36.20703125 C-6.99760252 36.86293162 -9.63648029 39.26148029 -12.75 42.375 Z " fill="#C1C1C1" transform="translate(49.9375,-0.5625)"/>
<path d="M0 0 C1.3602832 -0.05510742 1.3602832 -0.05510742 2.74804688 -0.11132812 C5.32645425 -0.12840367 7.55813859 -0.05635149 10.0625 0.5625 C13.17228025 4.00160645 14.52227908 6.97062214 15.0625 11.5625 C18.43712715 11.01526317 20.14485 10.5076 23.0625 8.5625 C25.75 8 25.75 8 29.0625 8.5625 C32.04514934 10.59187122 34.53747944 12.99600066 37.0625 15.5625 C37.59746094 16.08714844 38.13242188 16.61179687 38.68359375 17.15234375 C41.00206956 19.62844964 42.02364466 21.31965411 42.5625 24.6875 C42.01179552 27.85405078 41.0333023 29.09899712 39.0625 31.5625 C39.0625 32.8825 39.0625 34.2025 39.0625 35.5625 C39.70058594 35.76746094 40.33867188 35.97242188 40.99609375 36.18359375 C41.82238281 36.45300781 42.64867188 36.72242188 43.5 37 C44.32371094 37.26683594 45.14742188 37.53367188 45.99609375 37.80859375 C48.0625 38.5625 48.0625 38.5625 49.0625 39.5625 C49.36945516 43.17906686 49.34085951 46.80950353 49.375 50.4375 C49.41850586 51.96697266 49.41850586 51.96697266 49.46289062 53.52734375 C49.47126953 54.50574219 49.47964844 55.48414063 49.48828125 56.4921875 C49.50286377 57.39179199 49.51744629 58.29139648 49.5324707 59.21826172 C49.0625 61.5625 49.0625 61.5625 47.23901367 63.33642578 C44.54335486 64.85494497 42.1167059 65.21543115 39.0625 65.5625 C39.49029335 68.12926013 39.83903647 70.19006078 41.1875 72.4375 C42.57272005 75.80160584 41.9617499 78.08540037 41.0625 81.5625 C39.58329476 83.92612515 38.06207677 85.56292323 36.0625 87.5625 C35.4025 87.5625 34.7425 87.5625 34.0625 87.5625 C34.0625 88.2225 34.0625 88.8825 34.0625 89.5625 C31.61285545 92.11013034 30.17654277 92.55005897 26.625 92.9375 C22.87401403 92.54265937 21.14615003 91.61826668 18.0625 89.5625 C17.0725 89.5625 16.0825 89.5625 15.0625 89.5625 C14.85753906 90.20058594 14.65257813 90.83867188 14.44140625 91.49609375 C14.17199219 92.32238281 13.90257812 93.14867188 13.625 94 C13.35816406 94.82371094 13.09132812 95.64742188 12.81640625 96.49609375 C12.0625 98.5625 12.0625 98.5625 11.0625 99.5625 C7.44593314 99.86945516 3.81549647 99.84085951 0.1875 99.875 C-0.83214844 99.90400391 -1.85179687 99.93300781 -2.90234375 99.96289062 C-3.88074219 99.97126953 -4.85914063 99.97964844 -5.8671875 99.98828125 C-6.76679199 100.00286377 -7.66639648 100.01744629 -8.59326172 100.0324707 C-10.9375 99.5625 -10.9375 99.5625 -12.71142578 97.73901367 C-14.22994497 95.04335486 -14.59043115 92.6167059 -14.9375 89.5625 C-18.31212715 90.10973683 -20.01985 90.6174 -22.9375 92.5625 C-26 93.25 -26 93.25 -29.9375 92.5625 C-34.59928322 89.15688591 -38.72987069 85.37394397 -41.9375 80.5625 C-42.38786243 75.60851322 -42.07290111 73.35110968 -38.9375 69.5625 C-38.9375 68.2425 -38.9375 66.9225 -38.9375 65.5625 C-40.195625 65.294375 -41.45375 65.02625 -42.75 64.75 C-46.0769124 64.04098588 -47.79170329 63.23396629 -49.9375 60.5625 C-50.32568359 58.43359375 -50.32568359 58.43359375 -50.3359375 56 C-50.33980469 55.12085938 -50.34367187 54.24171875 -50.34765625 53.3359375 C-50.33605469 52.42070313 -50.32445312 51.50546875 -50.3125 50.5625 C-50.32990234 49.18964844 -50.32990234 49.18964844 -50.34765625 47.7890625 C-50.34378906 46.90992188 -50.33992188 46.03078125 -50.3359375 45.125 C-50.33086182 43.92037109 -50.33086182 43.92037109 -50.32568359 42.69140625 C-49.84664889 40.06424739 -49.02116043 39.1834069 -46.9375 37.5625 C-44.26431142 36.89292504 -41.69924963 36.78887292 -38.9375 36.5625 C-39.35966873 34.0294876 -39.72615426 31.93546307 -41 29.6875 C-42.48458982 26.32242975 -42.48556463 24.21626422 -41.9375 20.5625 C-39.92960715 17.54502057 -37.53747738 15.0752664 -34.9375 12.5625 C-33.7 11.325 -33.7 11.325 -32.4375 10.0625 C-29.04931312 8.02958787 -26.82226306 8.06807561 -22.9375 8.5625 C-20.75 10.0625 -20.75 10.0625 -18.9375 11.5625 C-17.6175 11.5625 -16.2975 11.5625 -14.9375 11.5625 C-14.669375 10.304375 -14.40125 9.04625 -14.125 7.75 C-12.38746158 -0.4030649 -7.25107981 0.01539507 0 0 Z M-8.8671875 6.3515625 C-10.37475487 9.46573451 -10.13399935 12.15651128 -9.9375 15.5625 C-12.92366908 16.52536062 -15.80194122 17.31926947 -18.9375 17.5625 C-21.6875 15.6875 -21.6875 15.6875 -23.9375 13.5625 C-27.13275542 13.07821088 -28.49058018 13.25519388 -31.17578125 15.1015625 C-35.52648336 19.3355716 -35.52648336 19.3355716 -37.625 24.875 C-37.20291547 27.59379412 -37.20291547 27.59379412 -35.375 28.90625 C-33.9375 30.5625 -33.9375 30.5625 -33.86328125 33.04296875 C-34.05470703 34.38294922 -34.05470703 34.38294922 -34.25 35.75 C-34.42982422 37.10158203 -34.42982422 37.10158203 -34.61328125 38.48046875 C-34.72027344 39.16753906 -34.82726563 39.85460938 -34.9375 40.5625 C-35.56398438 40.61148438 -36.19046875 40.66046875 -36.8359375 40.7109375 C-37.65320312 40.78570312 -38.47046875 40.86046875 -39.3125 40.9375 C-40.12460937 41.00710937 -40.93671875 41.07671875 -41.7734375 41.1484375 C-44.14084191 41.39142588 -44.14084191 41.39142588 -45.9375 43.5625 C-46.25807871 46.85014015 -46.25807871 46.85014015 -46.1875 50.5625 C-46.19265625 51.820625 -46.1978125 53.07875 -46.203125 54.375 C-46.27530455 57.65532361 -46.27530455 57.65532361 -43.9375 59.5625 C-41.73499008 60.02256346 -41.73499008 60.02256346 -39.3125 60.1875 C-38.49523437 60.26226562 -37.67796875 60.33703125 -36.8359375 60.4140625 C-36.20945312 60.46304688 -35.58296875 60.51203125 -34.9375 60.5625 C-34.68721189 62.14263217 -34.46309054 63.72692306 -34.25 65.3125 C-34.12238281 66.19421875 -33.99476562 67.0759375 -33.86328125 67.984375 C-33.95507772 71.17309448 -35.03932561 72.08365016 -36.9375 74.5625 C-37.47310477 77.7965326 -37.25133281 79.08808261 -35.43359375 81.8359375 C-31.10412078 86.45032505 -31.10412078 86.45032505 -25.125 87.75 C-21.97284861 86.86614796 -21.97284861 86.86614796 -20.53125 84.9375 C-18.9375 83.5625 -18.9375 83.5625 -16.67578125 83.70703125 C-15.47501953 84.03767578 -15.47501953 84.03767578 -14.25 84.375 C-13.03763672 84.69404297 -13.03763672 84.69404297 -11.80078125 85.01953125 C-11.18589844 85.19871094 -10.57101563 85.37789063 -9.9375 85.5625 C-9.88851562 86.18898438 -9.83953125 86.81546875 -9.7890625 87.4609375 C-9.71429688 88.27820313 -9.63953125 89.09546875 -9.5625 89.9375 C-9.49289063 90.74960938 -9.42328125 91.56171875 -9.3515625 92.3984375 C-9.10857412 94.76584191 -9.10857412 94.76584191 -6.9375 96.5625 C-3.65099802 96.92133583 -3.65099802 96.92133583 0.0625 96.875 C1.9496875 96.90013672 1.9496875 96.90013672 3.875 96.92578125 C4.926875 96.80589844 5.97875 96.68601562 7.0625 96.5625 C8.99645001 93.66157498 9.36381941 92.66575263 9.6875 89.375 C9.81125 88.116875 9.935 86.85875 10.0625 85.5625 C15.16307197 83.80368208 15.16307197 83.80368208 18.0625 83.5625 C21.25 85.4375 21.25 85.4375 24.0625 87.5625 C27.29260972 88.05016267 28.60492474 87.88431994 31.30078125 85.98828125 C31.98527344 85.29089844 32.66976562 84.59351562 33.375 83.875 C34.07238281 83.19050781 34.76976563 82.50601563 35.48828125 81.80078125 C37.37997362 79.1111045 37.5477099 77.78492661 37.0625 74.5625 C36.381875 73.7375 35.70125 72.9125 35 72.0625 C33.0625 69.5625 33.0625 69.5625 33.25 66.9375 C33.6521875 65.761875 33.6521875 65.761875 34.0625 64.5625 C34.3925 63.5725 34.7225 62.5825 35.0625 61.5625 C37.05859375 60.90234375 37.05859375 60.90234375 39.5 60.5 C43.20413657 59.93078485 43.20413657 59.93078485 46.0625 57.5625 C46.38307871 54.27485985 46.38307871 54.27485985 46.3125 50.5625 C46.31765625 49.304375 46.3228125 48.04625 46.328125 46.75 C46.40030455 43.46967639 46.40030455 43.46967639 44.0625 41.5625 C41.85999008 41.10243654 41.85999008 41.10243654 39.4375 40.9375 C38.62023437 40.86273438 37.80296875 40.78796875 36.9609375 40.7109375 C36.33445312 40.66195312 35.70796875 40.61296875 35.0625 40.5625 C34.09963148 37.57630642 33.30048755 34.6986471 33.0625 31.5625 C35 28.8125 35 28.8125 37.0625 26.5625 C37.15517539 22.85548427 36.18581021 21.69879024 33.6875 18.9375 C32.82125 18.15375 31.955 17.37 31.0625 16.5625 C30.588125 15.94375 30.11375 15.325 29.625 14.6875 C27.97699677 13.25673514 27.97699677 13.25673514 25.0625 13.6875 C22.06280035 14.29226846 22.06280035 14.29226846 20.5 16.1875 C20.025625 16.64125 19.55125 17.095 19.0625 17.5625 C16.625 17.3125 16.625 17.3125 14.0625 16.5625 C12.73016463 16.22519991 11.39699183 15.89116465 10.0625 15.5625 C10.01351562 14.93601562 9.96453125 14.30953125 9.9140625 13.6640625 C9.83929688 12.84679688 9.76453125 12.02953125 9.6875 11.1875 C9.58308594 9.96933594 9.58308594 9.96933594 9.4765625 8.7265625 C9.23357412 6.35915809 9.23357412 6.35915809 7.0625 4.5625 C3.81115287 4.16516074 3.81115287 4.16516074 0.125 4.1875 C-1.74478516 4.14496094 -1.74478516 4.14496094 -3.65234375 4.1015625 C-6.96637199 4.24753959 -6.96637199 4.24753959 -8.8671875 6.3515625 Z " fill="#171717" transform="translate(49.9375,-0.5625)"/>
<path d="M0 0 C5.00836638 2.84826943 8.61087366 6.73034918 10.609375 12.1640625 C11.63910456 18.41534104 11.07025943 23.92402435 7.88671875 29.44140625 C5.132294 33.15608917 2.04423707 35.68577514 -2.390625 37.1640625 C-8.20175453 37.63733206 -13.53836088 38.02404227 -18.890625 35.5390625 C-24.09374473 30.59609876 -28.00494202 26.25230208 -28.703125 18.8515625 C-28.12844002 12.07027971 -26.52137842 7.83858166 -21.390625 3.2265625 C-15.40961287 -1.7462866 -7.36749811 -2.57621666 0 0 Z M-21.203125 9.9765625 C-23.52531371 14.25427854 -23.58046686 18.06297974 -22.765625 22.7890625 C-21.00554922 27.10924849 -18.60702018 30.05586491 -14.390625 32.1640625 C-9.10757286 32.69064123 -4.72199643 32.80597372 0.109375 30.4765625 C4.29844939 26.60166869 5.78197015 23.92628937 6.046875 18.2265625 C5.89172825 13.48753455 4.85054532 10.75562961 1.609375 7.1640625 C-2.22845066 3.77774574 -6.02433994 3.65456922 -10.953125 3.80859375 C-15.45072752 4.46449412 -18.08960529 6.86304279 -21.203125 9.9765625 Z " fill="#171717" transform="translate(58.390625,31.8359375)"/>
<path d="M0 0 C0.99 0.33 1.98 0.66 3 1 C2.80139202 9.48597739 0.94241759 16.68443178 -4.8984375 23.078125 C-8.56144263 26.41833658 -12.30089021 29.2912328 -17 31 C-19.375 30.6875 -19.375 30.6875 -21 30 C-20 27 -20 27 -18.328125 26.0078125 C-17.64234375 25.71648437 -16.9565625 25.42515625 -16.25 25.125 C-9.92385215 22.13137646 -5.68449427 17.49995603 -3 11 C-2.34162953 8.35476151 -1.82941777 5.7296688 -1.39453125 3.0390625 C-1 1 -1 1 0 0 Z " fill="#101010" transform="translate(77,48)"/>
<path d="M0 0 C0 0.66 0 1.32 0 2 C-1.2684375 1.7834375 -1.2684375 1.7834375 -2.5625 1.5625 C-7.661892 2.21151353 -9.70802911 5.27760192 -13 9 C-14.33333333 10.33333333 -15.66666667 11.66666667 -17 13 C-17.66 12.67 -18.32 12.34 -19 12 C-8.34214286 -0.65428571 -8.34214286 -0.65428571 0 0 Z " fill="#656565" transform="translate(27,8)"/>
</svg>
